<svg width="20" height="20" viewBox="0 0 20 20" fill="none" xmlns="http://www.w3.org/2000/svg">
<path fill-rule="evenodd" clip-rule="evenodd" d="M2.166 4.999C5.06114 4.963 7.84481 3.87746 10 1.944C12.155 3.87782 14.9387 4.96373 17.834 5C17.944 5.65 18 6.32 18 7.001C18 12.226 14.66 16.671 10 18.318C5.34 16.67 2 12.225 2 7C2 6.318 2.057 5.65 2.166 4.999ZM13.707 8.707C13.8892 8.5184 13.99 8.2658 13.9877 8.0036C13.9854 7.7414 13.8802 7.49059 13.6948 7.30518C13.5094 7.11977 13.2586 7.0146 12.9964 7.01233C12.7342 7.01005 12.4816 7.11084 12.293 7.293L9 10.586L7.707 9.293C7.5184 9.11084 7.2658 9.01005 7.0036 9.01233C6.7414 9.0146 6.49059 9.11977 6.30518 9.30518C6.11977 9.49059 6.0146 9.7414 6.01233 10.0036C6.01005 10.2658 6.11084 10.5184 6.293 10.707L8.293 12.707C8.48053 12.8945 8.73484 12.9998 9 12.9998C9.26516 12.9998 9.51947 12.8945 9.707 12.707L13.707 8.707Z" fill="#CECECE"/>
</svg>
