<svg width="22" height="22" viewBox="0 0 22 22" fill="none" xmlns="http://www.w3.org/2000/svg">
<path d="M7.63945 16.4285L6.32495 18.425C5.41745 18.3975 2.02945 17.765 0.824951 15.675C0.824951 11.2255 2.62345 6.00601 3.48695 5.21951C5.26895 3.80601 7.97495 3.57501 7.97495 3.57501C7.97495 3.57501 8.31595 4.30651 8.55795 4.88951C9.62495 4.70801 10.5269 4.67501 11 4.67501C11.4729 4.67501 12.375 4.70801 13.442 4.88951C13.684 4.30651 14.025 3.57501 14.025 3.57501C14.025 3.57501 16.7309 3.80601 18.5129 5.21951C19.3764 6.00601 21.1749 11.154 21.1749 15.609C19.9704 17.6935 16.5824 18.3975 15.6749 18.425L14.3605 16.4285C13.431 16.632 12.3145 16.775 11 16.775C9.68545 16.775 8.56895 16.632 7.63945 16.4285Z" fill="#DCD5F2"/>
<path d="M7.97495 13.475C8.88622 13.475 9.62495 12.6131 9.62495 11.55C9.62495 10.4869 8.88622 9.625 7.97495 9.625C7.06368 9.625 6.32495 10.4869 6.32495 11.55C6.32495 12.6131 7.06368 13.475 7.97495 13.475Z" fill="white"/>
<path d="M14.025 13.475C14.9363 13.475 15.675 12.6131 15.675 11.55C15.675 10.4869 14.9363 9.625 14.025 9.625C13.1137 9.625 12.375 10.4869 12.375 11.55C12.375 12.6131 13.1137 13.475 14.025 13.475Z" fill="white"/>
<path d="M15.5255 18.705L14.2044 16.5765L14.6719 16.2866L15.8231 18.1412C16.9302 18.0488 19.8128 17.3234 20.9007 15.5315C20.8803 11.1067 19.0703 6.10116 18.3283 5.42411C16.911 4.29991 14.8188 3.95286 14.1885 3.87036C14.0911 4.07661 13.925 4.44071 13.7815 4.82131L13.2661 4.62661C13.4949 4.02161 13.7677 3.47491 13.7793 3.45181L13.8629 3.28461L14.0488 3.30056C14.1626 3.31046 16.8609 3.55741 18.6842 5.00501C19.6164 5.85531 21.4501 11.0215 21.4501 15.6063V15.68L21.4138 15.7438C20.1714 17.9003 16.779 18.6659 15.6839 18.7L15.5255 18.705Z" fill="#8B75A1"/>
<path d="M7.97505 13.75C6.91355 13.75 6.05005 12.7633 6.05005 11.55C6.05005 10.3367 6.91355 9.35001 7.97505 9.35001C9.03655 9.35001 9.90005 10.3367 9.90005 11.55C9.90005 12.7633 9.03655 13.75 7.97505 13.75ZM7.97505 9.90001C7.2166 9.90001 6.60005 10.6403 6.60005 11.55C6.60005 12.4597 7.2166 13.2 7.97505 13.2C8.7335 13.2 9.35005 12.4597 9.35005 11.55C9.35005 10.6403 8.7335 9.90001 7.97505 9.90001Z" fill="#8B75A1"/>
<path d="M14.0251 13.75C12.9636 13.75 12.1001 12.7633 12.1001 11.55C12.1001 10.3367 12.9636 9.35001 14.0251 9.35001C15.0866 9.35001 15.9501 10.3367 15.9501 11.55C15.9501 12.7633 15.0866 13.75 14.0251 13.75ZM14.0251 9.90001C13.2666 9.90001 12.6501 10.6403 12.6501 11.55C12.6501 12.4597 13.2666 13.2 14.0251 13.2C14.7835 13.2 15.4001 12.4597 15.4001 11.55C15.4001 10.6403 14.7835 9.90001 14.0251 9.90001Z" fill="#8B75A1"/>
<path d="M6.47245 18.705L6.31625 18.7C5.49455 18.6742 1.89205 18.0785 0.586349 15.8125L0.550049 15.7487V15.675C0.550049 11.2173 2.3722 5.86631 3.30225 5.01821C5.13925 3.55796 7.83755 3.31101 7.9514 3.30111L8.1373 3.28516L8.2209 3.45236C8.23245 3.47546 8.50525 4.02216 8.73405 4.62716L8.21925 4.82186C8.07515 4.44126 7.9096 4.07716 7.81225 3.87146C7.1814 3.95286 5.08755 4.30156 3.6581 5.43621C2.931 6.10116 1.1204 11.1359 1.10005 15.6002C2.1753 17.3679 5.03915 18.0543 6.1804 18.1418L7.331 16.3515L7.7941 16.6491L6.47245 18.705Z" fill="#8B75A1"/>
<path d="M11.0001 17.05C6.41141 17.05 4.12616 15.3555 4.03101 15.284L4.36321 14.8456C4.38576 14.8616 6.61216 16.5 11.0001 16.5C15.388 16.5 17.6144 14.8616 17.6364 14.8451L17.9686 15.2834C17.874 15.3555 15.5887 17.05 11.0001 17.05Z" fill="#8B75A1"/>
<path d="M16.9962 6.33544C14.585 5.01709 11.5781 4.94999 11.0001 4.94999C10.422 4.94999 7.41519 5.01709 5.00399 6.33544L4.73999 5.85309C7.26889 4.46984 10.3984 4.39999 11.0001 4.39999C11.6018 4.39999 14.7313 4.46984 17.2607 5.85309L16.9962 6.33544Z" fill="#8B75A1"/>
</svg>
