<svg width="10" height="10" viewBox="0 0 10 10" fill="none" xmlns="http://www.w3.org/2000/svg">
<path fill-rule="evenodd" clip-rule="evenodd" d="M1.5 8.5C1.5 8.36739 1.55268 8.24021 1.64645 8.14645C1.74021 8.05268 1.86739 8 2 8H8C8.13261 8 8.25979 8.05268 8.35355 8.14645C8.44732 8.24021 8.5 8.36739 8.5 8.5C8.5 8.63261 8.44732 8.75979 8.35355 8.85355C8.25979 8.94732 8.13261 9 8 9H2C1.86739 9 1.74021 8.94732 1.64645 8.85355C1.55268 8.75979 1.5 8.63261 1.5 8.5ZM3.1465 4.6465C3.24026 4.55276 3.36742 4.50011 3.5 4.50011C3.63258 4.50011 3.75974 4.55276 3.8535 4.6465L4.5 5.293V1.5C4.5 1.36739 4.55268 1.24021 4.64645 1.14645C4.74021 1.05268 4.86739 1 5 1C5.13261 1 5.25979 1.05268 5.35355 1.14645C5.44732 1.24021 5.5 1.36739 5.5 1.5V5.293L6.1465 4.6465C6.19262 4.59875 6.2478 4.56065 6.3088 4.53445C6.3698 4.50824 6.43541 4.49445 6.5018 4.49387C6.56819 4.4933 6.63403 4.50595 6.69548 4.53109C6.75693 4.55623 6.81275 4.59336 6.8597 4.6403C6.90664 4.68725 6.94377 4.74307 6.96891 4.80452C6.99405 4.86597 7.0067 4.93181 7.00613 4.9982C7.00555 5.06459 6.99176 5.1302 6.96555 5.1912C6.93935 5.2522 6.90126 5.30738 6.8535 5.3535L5.3535 6.8535C5.25974 6.94724 5.13258 6.99989 5 6.99989C4.86742 6.99989 4.74026 6.94724 4.6465 6.8535L3.1465 5.3535C3.05276 5.25974 3.00011 5.13258 3.00011 5C3.00011 4.86742 3.05276 4.74026 3.1465 4.6465Z" fill="white"/>
</svg>
