<svg width="16" height="18" viewBox="0 0 16 18" fill="none" xmlns="http://www.w3.org/2000/svg">
<path fill-rule="evenodd" clip-rule="evenodd" d="M0.166 3.999C3.06114 3.963 5.84481 2.87746 8 0.944C10.155 2.87782 12.9387 3.96373 15.834 4C15.944 4.65 16 5.32 16 6.001C16 11.226 12.66 15.671 8 17.318C3.34 15.67 0 11.225 0 6C0 5.318 0.0569999 4.65 0.166 3.999ZM11.707 7.707C11.8892 7.5184 11.99 7.2658 11.9877 7.0036C11.9854 6.7414 11.8802 6.49059 11.6948 6.30518C11.5094 6.11977 11.2586 6.0146 10.9964 6.01233C10.7342 6.01005 10.4816 6.11084 10.293 6.293L7 9.586L5.707 8.293C5.5184 8.11084 5.2658 8.01005 5.0036 8.01233C4.7414 8.0146 4.49059 8.11977 4.30518 8.30518C4.11977 8.49059 4.0146 8.7414 4.01233 9.0036C4.01005 9.2658 4.11084 9.5184 4.293 9.707L6.293 11.707C6.48053 11.8945 6.73484 11.9998 7 11.9998C7.26516 11.9998 7.51947 11.8945 7.707 11.707L11.707 7.707Z" fill="#51AFFE"/>
</svg>
